PathFileType	4	(X/Y/Z)	output.trc
DataRate	CameraRate	NumFrames	NumMarkers	Units	OrigDataRate	OrigDataStartFrame	OrigNumFrames
30	30	10	17	m	30	681	1089
Frame#	Time	root		right_hip		right_knee		right_ankle		left_hip		left_knee		left_ankle		torso		thorax		neck		head		left_shoulder		left_elbow		left_wrist		right_shoulder		right_elbow		right_wrist
		X1	Y1	Z1	X2	Y2	Z2	X3	Y3	Z3	X4	Y4	Z4	X5	Y5	Z5	X6	Y6	Z6	X7	Y7	Z7	X8	Y8	Z8	X9	Y9	Z9	X10	Y10	Z10	X11	Y11	Z11	X12	Y12	Z12	X13	Y13	Z13	X14	Y14	Z14	X15	Y15	Z15	X16	Y16	Z16	X17	Y17	Z17

681.0	22.666667	0.000177	-0.000037	0.821383	0.086454	0.028034	0.809735	0.116849	0.047571	0.425358	0.069777	0.200409	0.000000	-0.086420	-0.028016	0.833004	-0.115846	0.009719	0.432252	-0.227346	0.111024	0.022273	0.006186	-0.019315	1.062282	0.041141	-0.063486	1.319503	0.064435	-0.123053	1.465271	0.066612	-0.020081	1.508145	-0.096879	-0.078880	1.281179	-0.247286	-0.020723	1.048903	-0.288592	-0.025626	0.804714	0.157374	-0.015506	1.274835	0.208026	0.128301	1.042296	0.250469	0.141910	0.815534
682.0	22.700000	0.000179	-0.000038	0.820722	0.085486	0.028531	0.809563	0.114969	0.046015	0.425036	0.066780	0.194067	0.000000	-0.085448	-0.028510	0.831855	-0.117293	0.001613	0.435117	-0.239129	0.097821	0.023883	0.000615	-0.020447	1.060348	0.035917	-0.063454	1.318685	0.062389	-0.125340	1.464716	0.066460	-0.021977	1.510900	-0.100241	-0.081874	1.281227	-0.247676	-0.029636	1.046761	-0.288177	-0.037000	0.800125	0.150272	-0.013314	1.273484	0.199645	0.129545	1.041445	0.241185	0.148022	0.810138
683.0	22.733333	0.000178	-0.000038	0.813534	0.081335	0.034825	0.800732	0.112456	0.050437	0.421420	0.064377	0.191495	0.000000	-0.081303	-0.034808	0.826311	-0.106164	-0.001090	0.431326	-0.246057	0.078744	0.026754	0.000942	-0.015486	1.054377	0.036781	-0.056762	1.312630	0.065285	-0.115768	1.457104	0.070754	-0.021695	1.503654	-0.097288	-0.075994	1.275784	-0.245146	-0.019792	1.043570	-0.279897	-0.030071	0.796169	0.146596	-0.004998	1.269679	0.189872	0.137352	1.032875	0.238787	0.160506	0.814203
684.0	22.766667	0.000178	-0.000038	0.812927	0.080574	0.035412	0.802300	0.110337	0.047439	0.420193	0.064134	0.186634	0.000000	-0.080539	-0.035394	0.823529	-0.108292	-0.010046	0.431488	-0.260496	0.065335	0.023534	-0.002694	-0.017616	1.052301	0.031774	-0.054893	1.312293	0.062506	-0.112020	1.457528	0.065176	-0.014936	1.506208	-0.099632	-0.076854	1.275334	-0.246315	-0.023235	1.042096	-0.277768	-0.035028	0.795867	0.139232	-0.002399	1.267096	0.185192	0.134661	1.030243	0.230747	0.154463	0.806635
685.0	22.800000	0.000179	-0.000038	0.808844	0.077463	0.041067	0.798112	0.105191	0.049322	0.418318	0.060535	0.183758	0.000000	-0.077430	-0.041049	0.819553	-0.099307	-0.008413	0.430644	-0.273531	0.071217	0.033639	-0.000646	-0.016326	1.048837	0.037192	-0.053974	1.308603	0.066278	-0.109871	1.454230	0.068514	-0.017802	1.504023	-0.094270	-0.080133	1.270339	-0.245861	-0.027223	1.038693	-0.267737	-0.039968	0.790199	0.141998	0.003561	1.263884	0.181198	0.140640	1.026069	0.229050	0.168428	0.809627
686.0	22.833333	0.000181	-0.000039	0.811532	0.073806	0.045030	0.801975	0.101732	0.051532	0.420716	0.061464	0.175844	0.000000	-0.073771	-0.045011	0.821067	-0.089751	-0.012365	0.430273	-0.280983	0.056898	0.036856	-0.002995	-0.015474	1.052038	0.034817	-0.050332	1.312226	0.067691	-0.102807	1.461265	0.068984	-0.011837	1.507673	-0.093425	-0.078580	1.273389	-0.244656	-0.027195	1.041703	-0.266159	-0.043667	0.790004	0.135979	0.008313	1.265724	0.177386	0.143073	1.027540	0.227125	0.175134	0.813614
687.0	22.866667	0.000181	-0.000039	0.813218	0.071392	0.048905	0.804355	0.098988	0.049030	0.423587	0.056230	0.166868	0.000000	-0.071356	-0.048886	0.822057	-0.083065	-0.022348	0.434598	-0.283422	0.045915	0.039860	-0.004741	-0.014083	1.053266	0.031785	-0.046381	1.314120	0.064868	-0.099759	1.463125	0.065226	-0.008110	1.509889	-0.094313	-0.079153	1.274095	-0.240069	-0.033724	1.039050	-0.258757	-0.053674	0.788340	0.130791	0.015824	1.265305	0.166764	0.149534	1.027105	0.217664	0.190708	0.811985
688.0	22.900000	0.000178	-0.000039	0.811209	0.067163	0.049785	0.800831	0.091552	0.052132	0.420933	0.053580	0.172595	0.000000	-0.067128	-0.049767	0.821566	-0.076058	-0.028874	0.432952	-0.274944	0.030316	0.034314	-0.001495	-0.013163	1.052689	0.033701	-0.042467	1.313346	0.067808	-0.094684	1.463496	0.067715	-0.004856	1.510727	-0.089111	-0.074758	1.274342	-0.236455	-0.032347	1.040082	-0.251500	-0.052060	0.787127	0.128843	0.019929	1.260795	0.159780	0.153975	1.020340	0.214284	0.198868	0.813659
689.0	22.933333	0.000178	-0.000039	0.803975	0.065321	0.050748	0.794931	0.090550	0.047804	0.422335	0.055080	0.166492	0.000000	-0.065288	-0.050731	0.813001	-0.071356	-0.043163	0.431207	-0.258406	-0.000086	0.023179	-0.001310	-0.010955	1.045254	0.031427	-0.037421	1.306938	0.068678	-0.090659	1.456721	0.068820	0.001929	1.504610	-0.088884	-0.072037	1.266448	-0.232652	-0.028632	1.030573	-0.246117	-0.046343	0.780930	0.124054	0.026695	1.251219	0.150284	0.163443	1.015079	0.203994	0.204127	0.805371
690.0	22.966667	0.000174	-0.000037	0.804397	0.063873	0.049561	0.794817	0.085270	0.049956	0.422865	0.050224	0.173268	0.000000	-0.063844	-0.049546	0.813963	-0.074155	-0.040093	0.430548	-0.242510	0.002177	0.015281	-0.001362	-0.010506	1.044382	0.027711	-0.034788	1.306445	0.065655	-0.087271	1.455107	0.066729	0.006198	1.502277	-0.089121	-0.070598	1.266233	-0.232987	-0.031817	1.030113	-0.242795	-0.051616	0.779399	0.117488	0.029014	1.246176	0.141894	0.159097	1.008693	0.196004	0.201344	0.803360
